<svg width="32" height="32" viewBox="0 0 32 32" fill="none" xmlns="http://www.w3.org/2000/svg">
<path d="M20.7075 24.2925C20.8005 24.3854 20.8742 24.4957 20.9246 24.6171C20.9749 24.7385 21.0008 24.8686 21.0008 25C21.0008 25.1314 20.9749 25.2615 20.9246 25.3829C20.8742 25.5043 20.8005 25.6146 20.7075 25.7075L16.7075 29.7075C16.6146 29.8005 16.5043 29.8742 16.3829 29.9246C16.2615 29.9749 16.1314 30.0008 16 30.0008C15.8686 30.0008 15.7385 29.9749 15.6171 29.9246C15.4957 29.8742 15.3854 29.8005 15.2925 29.7075L11.2925 25.7075C11.1049 25.5199 10.9995 25.2654 10.9995 25C10.9995 24.7346 11.1049 24.4801 11.2925 24.2925C11.4801 24.1049 11.7346 23.9994 12 23.9994C12.2654 23.9994 12.5199 24.1049 12.7075 24.2925L15 26.5862V5.41374L12.7075 7.70749C12.5199 7.89513 12.2654 8.00055 12 8.00055C11.7346 8.00055 11.4801 7.89513 11.2925 7.70749C11.1049 7.51985 10.9995 7.26536 10.9995 6.99999C10.9995 6.73463 11.1049 6.48013 11.2925 6.29249L15.2925 2.29249C15.3854 2.19952 15.4957 2.12576 15.6171 2.07543C15.7385 2.02511 15.8686 1.99921 16 1.99921C16.1314 1.99921 16.2615 2.02511 16.3829 2.07543C16.5043 2.12576 16.6146 2.19952 16.7075 2.29249L20.7075 6.29249C20.8951 6.48013 21.0006 6.73463 21.0006 6.99999C21.0006 7.26536 20.8951 7.51985 20.7075 7.70749C20.5199 7.89513 20.2654 8.00055 20 8.00055C19.7346 8.00055 19.4801 7.89513 19.2925 7.70749L17 5.41374V26.5862L19.2925 24.2925C19.3854 24.1995 19.4957 24.1258 19.6171 24.0754C19.7385 24.0251 19.8686 23.9992 20 23.9992C20.1314 23.9992 20.2615 24.0251 20.3829 24.0754C20.5043 24.1258 20.6146 24.1995 20.7075 24.2925Z" fill="#0E121B"/>
</svg>
