<svg width="32" height="32" viewBox="0 0 32 32" fill="none" xmlns="http://www.w3.org/2000/svg">
<path d="M11.2925 7.70749C11.1995 7.61462 11.1258 7.50433 11.0754 7.38293C11.0251 7.26154 10.9992 7.13141 10.9992 6.99999C10.9992 6.86858 11.0251 6.73845 11.0754 6.61705C11.1258 6.49566 11.1995 6.38537 11.2925 6.29249L15.2925 2.29249C15.3854 2.19952 15.4957 2.12576 15.6171 2.07543C15.7385 2.02511 15.8686 1.99921 16 1.99921C16.1314 1.99921 16.2615 2.02511 16.3829 2.07543C16.5043 2.12576 16.6146 2.19952 16.7075 2.29249L20.7075 6.29249C20.8951 6.48013 21.0005 6.73463 21.0005 6.99999C21.0005 7.26536 20.8951 7.51985 20.7075 7.70749C20.5199 7.89513 20.2654 8.00055 20 8.00055C19.7346 8.00055 19.4801 7.89513 19.2925 7.70749L17 5.41374V12C17 12.2652 16.8946 12.5196 16.7071 12.7071C16.5196 12.8946 16.2652 13 16 13C15.7348 13 15.4804 12.8946 15.2929 12.7071C15.1054 12.5196 15 12.2652 15 12V5.41374L12.7075 7.70749C12.6146 7.80047 12.5043 7.87423 12.3829 7.92455C12.2615 7.97488 12.1314 8.00078 12 8.00078C11.8686 8.00078 11.7385 7.97488 11.6171 7.92455C11.4957 7.87423 11.3854 7.80047 11.2925 7.70749ZM19.2925 24.2925L17 26.5862V20C17 19.7348 16.8946 19.4804 16.7071 19.2929C16.5196 19.1053 16.2652 19 16 19C15.7348 19 15.4804 19.1053 15.2929 19.2929C15.1054 19.4804 15 19.7348 15 20V26.5862L12.7075 24.2925C12.5199 24.1049 12.2654 23.9994 12 23.9994C11.7346 23.9994 11.4801 24.1049 11.2925 24.2925C11.1049 24.4801 10.9994 24.7346 10.9994 25C10.9994 25.2654 11.1049 25.5199 11.2925 25.7075L15.2925 29.7075C15.3854 29.8005 15.4957 29.8742 15.6171 29.9246C15.7385 29.9749 15.8686 30.0008 16 30.0008C16.1314 30.0008 16.2615 29.9749 16.3829 29.9246C16.5043 29.8742 16.6146 29.8005 16.7075 29.7075L20.7075 25.7075C20.8951 25.5199 21.0005 25.2654 21.0005 25C21.0005 24.7346 20.8951 24.4801 20.7075 24.2925C20.5199 24.1049 20.2654 23.9994 20 23.9994C19.7346 23.9994 19.4801 24.1049 19.2925 24.2925ZM29.7075 15.2925L25.7075 11.2925C25.5199 11.1049 25.2654 10.9994 25 10.9994C24.7346 10.9994 24.4801 11.1049 24.2925 11.2925C24.1049 11.4801 23.9994 11.7346 23.9994 12C23.9994 12.2654 24.1049 12.5199 24.2925 12.7075L26.5862 15H20C19.7348 15 19.4804 15.1054 19.2929 15.2929C19.1053 15.4804 19 15.7348 19 16C19 16.2652 19.1053 16.5196 19.2929 16.7071C19.4804 16.8946 19.7348 17 20 17H26.5862L24.2925 19.2925C24.1049 19.4801 23.9994 19.7346 23.9994 20C23.9994 20.2654 24.1049 20.5199 24.2925 20.7075C24.4801 20.8951 24.7346 21.0005 25 21.0005C25.2654 21.0005 25.5199 20.8951 25.7075 20.7075L29.7075 16.7075C29.8005 16.6146 29.8742 16.5043 29.9246 16.3829C29.9749 16.2615 30.0008 16.1314 30.0008 16C30.0008 15.8686 29.9749 15.7385 29.9246 15.6171C29.8742 15.4957 29.8005 15.3854 29.7075 15.2925ZM5.41374 17H12C12.2652 17 12.5196 16.8946 12.7071 16.7071C12.8946 16.5196 13 16.2652 13 16C13 15.7348 12.8946 15.4804 12.7071 15.2929C12.5196 15.1054 12.2652 15 12 15H5.41374L7.70749 12.7075C7.89513 12.5199 8.00055 12.2654 8.00055 12C8.00055 11.7346 7.89513 11.4801 7.70749 11.2925C7.51985 11.1049 7.26536 10.9994 6.99999 10.9994C6.73463 10.9994 6.48013 11.1049 6.29249 11.2925L2.29249 15.2925C2.19952 15.3854 2.12576 15.4957 2.07543 15.6171C2.02511 15.7385 1.99921 15.8686 1.99921 16C1.99921 16.1314 2.02511 16.2615 2.07543 16.3829C2.12576 16.5043 2.19952 16.6146 2.29249 16.7075L6.29249 20.7075C6.48013 20.8951 6.73463 21.0005 6.99999 21.0005C7.26536 21.0005 7.51985 20.8951 7.70749 20.7075C7.89513 20.5199 8.00055 20.2654 8.00055 20C8.00055 19.7346 7.89513 19.4801 7.70749 19.2925L5.41374 17Z" fill="#0E121B"/>
</svg>
