<svg width="32" height="32" viewBox="0 0 32 32" fill="none" xmlns="http://www.w3.org/2000/svg">
<path d="M29.9775 14.2737L8.99998 2.26998C8.69417 2.09165 8.3465 1.99768 7.99248 1.99768C7.63847 1.99768 7.2908 2.09165 6.98499 2.26998C6.68368 2.44275 6.4337 2.69247 6.26063 2.99359C6.08755 3.29472 5.9976 3.63642 5.99999 3.98373V28.0162C5.99899 28.3632 6.09012 28.7042 6.26405 29.0044C6.43799 29.3046 6.68849 29.5533 6.98998 29.725C7.2958 29.9033 7.64347 29.9973 7.99748 29.9973C8.3515 29.9973 8.69917 29.9033 9.00499 29.725L29.9775 17.725C30.287 17.5553 30.5451 17.3055 30.7249 17.0018C30.9048 16.6981 30.9996 16.3517 30.9996 15.9987C30.9996 15.6458 30.9048 15.2993 30.7249 14.9956C30.5451 14.6919 30.287 14.4422 29.9775 14.2725V14.2737ZM7.99998 26.5837V5.41623L18.5862 16L7.99998 26.5837ZM20 17.4137L22.365 19.7787L11.3025 26.1112L20 17.4137ZM11.3 5.88748L22.3662 12.2212L20 14.5862L11.3 5.88748ZM24.1637 18.75L21.4137 16L24.1637 13.25L28.9675 16L24.1637 18.75Z" fill="#0E121B"/>
</svg>
