<svg width="32" height="32" viewBox="0 0 32 32" fill="none" xmlns="http://www.w3.org/2000/svg">
<path d="M28 20C28 20.2652 27.8946 20.5196 27.7071 20.7071C27.5196 20.8947 27.2652 21 27 21H12.8062L6.74 27.6725C6.5607 27.8651 6.31272 27.9793 6.04981 27.9903C5.7869 28.0012 5.53025 27.9082 5.33552 27.7312C5.14078 27.5542 5.02364 27.3076 5.00951 27.0449C4.99537 26.7821 5.08537 26.5244 5.26 26.3275L10.1025 21H5C4.73478 21 4.48043 20.8947 4.29289 20.7071C4.10536 20.5196 4 20.2652 4 20C4 19.7348 4.10536 19.4804 4.29289 19.2929C4.48043 19.1054 4.73478 19 5 19H11.9213L17.375 13H5C4.73478 13 4.48043 12.8947 4.29289 12.7071C4.10536 12.5196 4 12.2652 4 12C4 11.7348 4.10536 11.4804 4.29289 11.2929C4.48043 11.1054 4.73478 11 5 11H19.1938L25.26 4.32751C25.4393 4.13491 25.6873 4.02074 25.9502 4.00975C26.2131 3.99877 26.4697 4.09185 26.6645 4.26883C26.8592 4.4458 26.9764 4.6924 26.9905 4.95516C27.0046 5.21792 26.9146 5.47566 26.74 5.67251L21.8975 11H27C27.2652 11 27.5196 11.1054 27.7071 11.2929C27.8946 11.4804 28 11.7348 28 12C28 12.2652 27.8946 12.5196 27.7071 12.7071C27.5196 12.8947 27.2652 13 27 13H20.0788L14.625 19H27C27.2652 19 27.5196 19.1054 27.7071 19.2929C27.8946 19.4804 28 19.7348 28 20Z" fill="#0E121B"/>
</svg>
