<svg width="42" height="58" viewBox="0 0 42 58" fill="none" xmlns="http://www.w3.org/2000/svg">
<path d="M21.9372 0.0658648H1.48182C1.08882 0.0658648 0.711905 0.221981 0.43401 0.499876C0.156116 0.777771 0 1.15466 0 1.54767V37.8995C0.00500197 43.1102 2.07628 48.1062 5.75959 51.7919C9.44291 55.4776 14.4376 57.5521 19.6482 57.5604C19.8428 57.5604 20.0355 57.5221 20.2153 57.4476C20.3951 57.3731 20.5585 57.264 20.6961 57.1264C20.8337 56.9888 20.9428 56.8254 21.0173 56.6457C21.0917 56.4659 21.1301 56.2732 21.1301 56.0786V39.3813H21.9246C24.5357 39.4281 27.1299 38.9542 29.5559 37.9873C31.9818 37.0204 34.1908 35.5799 36.0539 33.7499C37.917 31.9199 39.3969 29.737 40.4071 27.3287C41.4172 24.9205 41.9375 22.3351 41.9375 19.7236C41.9375 17.1121 41.4172 14.5267 40.4071 12.1185C39.3969 9.71021 37.917 7.52733 36.0539 5.69731C34.1908 3.86728 31.9818 2.42677 29.5559 1.45988C27.1299 0.492985 24.5357 0.0190977 21.9246 0.0658648H21.9372ZM18.1538 54.5337C14.2596 54.1796 10.6127 52.4714 7.84773 49.7064C5.08272 46.9414 3.37455 43.2945 3.02039 39.4003H18.1538V54.5337ZM18.1538 31.6254L3.88425 3.02947H18.1791L18.1538 31.6254ZM21.9372 36.4177H21.1427V3.02947H21.9372C24.1568 2.98633 26.3627 3.38626 28.4259 4.20584C30.4891 5.02543 32.3681 6.2482 33.9531 7.80267C35.5381 9.35713 36.7971 11.2121 37.6566 13.259C38.5162 15.3058 38.9589 17.5036 38.9589 19.7236C38.9589 21.9436 38.5162 24.1413 37.6566 26.1882C36.7971 28.2351 35.5381 30.09 33.9531 31.6445C32.3681 33.1989 30.4891 34.4218 28.4259 35.2413C26.3627 36.0609 24.1568 36.4608 21.9372 36.4177Z" fill="#0E121B"/>
</svg>
