<svg width="32" height="32" viewBox="0 0 32 32" fill="none" xmlns="http://www.w3.org/2000/svg">
<path d="M19 28C19 28.2652 18.8947 28.5195 18.7072 28.7071C18.5196 28.8946 18.2653 29 18 29H14C13.7348 29 13.4805 28.8946 13.2929 28.7071C13.1054 28.5195 13 28.2652 13 28C13 27.7348 13.1054 27.4804 13.2929 27.2929C13.4805 27.1053 13.7348 27 14 27H18C18.2653 27 18.5196 27.1053 18.7072 27.2929C18.8947 27.4804 19 27.7348 19 28ZM16 14C16.2967 14 16.5867 13.912 16.8334 13.7472C17.0801 13.5824 17.2723 13.3481 17.3859 13.074C17.4994 12.7999 17.5291 12.4983 17.4712 12.2073C17.4133 11.9164 17.2705 11.6491 17.0607 11.4393C16.8509 11.2295 16.5837 11.0867 16.2927 11.0288C16.0017 10.9709 15.7001 11.0006 15.426 11.1142C15.1519 11.2277 14.9177 11.4199 14.7528 11.6666C14.588 11.9133 14.5 12.2033 14.5 12.5C14.5 12.8978 14.6581 13.2793 14.9394 13.5606C15.2207 13.8419 15.6022 14 16 14ZM27.9525 19.4787L26.4075 26.4325C26.3342 26.7627 26.1784 27.0689 25.9546 27.3225C25.7307 27.5761 25.4462 27.7688 25.1277 27.8826C24.8091 27.9963 24.4669 28.0274 24.1331 27.973C23.7993 27.9185 23.4847 27.7803 23.2188 27.5712L19.8138 25H12.1888L8.7813 27.5712C8.51541 27.7803 8.20083 27.9185 7.86699 27.973C7.53315 28.0274 7.19095 27.9963 6.8724 27.8826C6.55385 27.7688 6.26936 27.5761 6.04553 27.3225C5.8217 27.0689 5.66585 26.7627 5.59255 26.4325L4.04755 19.4787C3.98201 19.1803 3.98532 18.8709 4.05723 18.5739C4.12914 18.277 4.26775 18.0003 4.46255 17.765L8.03255 13.4825C8.15237 11.9086 8.51368 10.3626 9.1038 8.89872C10.7163 4.85622 13.6038 2.31997 14.775 1.41747C15.1256 1.14583 15.5565 0.998413 16 0.998413C16.4436 0.998413 16.8745 1.14583 17.225 1.41747C18.3925 2.31997 21.2838 4.85622 22.8963 8.89872C23.4864 10.3626 23.8477 11.9086 23.9675 13.4825L27.5375 17.765C27.7323 18.0003 27.871 18.277 27.9429 18.5739C28.0148 18.8709 28.0181 19.1803 27.9525 19.4787ZM12.4288 23H19.5713C22.2113 18.3075 22.705 13.815 21.0388 9.63997C19.5688 5.95497 16.8113 3.62497 16 2.99997C15.1863 3.62497 12.4288 5.95497 10.9588 9.63997C9.29505 13.815 9.7888 18.3075 12.4288 23ZM10.5538 23.7312C9.20796 21.2854 8.3913 18.8816 8.1038 16.52L6.00005 19.045L7.54505 26L7.56755 25.9837L10.5538 23.7312ZM26 19.045L23.8963 16.52C23.6113 18.8766 22.7963 21.2804 21.4513 23.7312L24.4325 25.9812L24.455 25.9975L26 19.045Z" fill="#0E121B"/>
</svg>
