<svg width="16" height="16" viewBox="0 0 16 16" fill="none" xmlns="http://www.w3.org/2000/svg">
<path d="M5.19291 3.60233C5.55318 3.59564 5.91293 3.63258 6.26433 3.71233C6.56019 3.77693 6.84108 3.89713 7.09209 4.06654C7.32391 4.235 7.50733 4.46148 7.62395 4.72325C7.75797 5.04514 7.82263 5.39166 7.8137 5.74022C7.82892 6.12294 7.73118 6.50168 7.53265 6.82923C7.32379 7.1386 7.0351 7.38567 6.69718 7.54425C7.15575 7.66787 7.55517 7.95105 7.8236 8.34286C8.0813 8.75801 8.21082 9.23993 8.19596 9.72833C8.20446 10.1177 8.12394 10.5039 7.96055 10.8575C7.80953 11.1659 7.58839 11.4347 7.31484 11.6424C7.03322 11.8477 6.7163 11.9997 6.37983 12.0906C6.0309 12.1871 5.67044 12.2356 5.30841 12.2347H1.3335V3.60233H5.19291ZM4.96356 7.09379C5.24662 7.10546 5.52527 7.02072 5.75392 6.85343C5.86342 6.75595 5.9486 6.6342 6.00266 6.49792C6.05671 6.36164 6.07814 6.21461 6.06522 6.06857C6.07255 5.89801 6.03859 5.72819 5.96622 5.57356C5.90483 5.45045 5.80938 5.34755 5.69122 5.27711C5.57153 5.19957 5.43706 5.14769 5.29631 5.12476C5.14359 5.09517 4.98819 5.08171 4.83265 5.08461H3.13423V7.10149H4.96356V7.09379ZM5.06256 10.7689C5.23374 10.7713 5.40458 10.7528 5.57132 10.7139C5.72369 10.6803 5.8682 10.6177 5.99702 10.5297C6.12323 10.4417 6.22519 10.3233 6.29348 10.1854C6.37266 10.0096 6.40903 9.81751 6.39963 9.62493C6.4168 9.44943 6.39355 9.27233 6.33168 9.10721C6.2698 8.94208 6.17094 8.79332 6.04267 8.67231C5.7708 8.47207 5.43763 8.37288 5.10051 8.39181H3.13423V10.7689H5.06256Z" fill="#0E121B"/>
<path d="M10.7606 10.7371C10.902 10.8681 11.0685 10.969 11.25 11.0337C11.4315 11.0983 11.6243 11.1254 11.8167 11.1133C12.1216 11.121 12.4205 11.0282 12.6675 10.8493C12.8684 10.7186 13.0206 10.5253 13.1004 10.2993H14.5364C14.3834 10.9427 14.0098 11.5121 13.4804 11.9086C12.9726 12.2457 12.3725 12.4164 11.7633 12.397C11.3285 12.4027 10.897 12.321 10.4944 12.1567C10.1303 12.0048 9.80365 11.7752 9.53742 11.484C9.27219 11.1788 9.06843 10.8253 8.93735 10.4428C8.79023 10.0153 8.71821 9.56555 8.7245 9.11346C8.72182 8.66895 8.79626 8.22735 8.9445 7.80829C9.14367 7.21874 9.52448 6.70744 10.0323 6.34776C10.5401 5.98808 11.1488 5.79851 11.771 5.80626C12.2304 5.79665 12.6847 5.90416 13.091 6.11866C13.4583 6.32007 13.7752 6.60215 14.0178 6.94367C14.2659 7.30203 14.4438 7.70424 14.5419 8.12894C14.6496 8.58499 14.688 9.05464 14.6558 9.52212H10.3784C10.3437 9.96132 10.4807 10.3968 10.7606 10.7371ZM12.6373 7.45408C12.5176 7.33436 12.3736 7.24168 12.2151 7.18228C12.0565 7.12289 11.8871 7.09817 11.7182 7.10978C11.4941 7.10123 11.2717 7.15088 11.0725 7.25388C10.9146 7.34081 10.7752 7.45777 10.6622 7.59818C10.562 7.72983 10.4874 7.87908 10.4422 8.03819C10.4014 8.1709 10.376 8.30782 10.3663 8.4463H13.0157C12.9926 8.0853 12.8611 7.73967 12.6384 7.45463L12.6373 7.45408Z" fill="#0E121B"/>
<path d="M13.3443 4.17871H10.0244V5.02737H13.3443V4.17871Z" fill="#0E121B"/>
</svg>
