<svg width="32" height="32" viewBox="0 0 32 32" fill="none" xmlns="http://www.w3.org/2000/svg">
<path d="M31.9488 23.6838C31.9073 23.5592 31.8416 23.444 31.7556 23.3448C31.6696 23.2456 31.5648 23.1643 31.4473 23.1055C31.3299 23.0468 31.202 23.0118 31.071 23.0025C30.94 22.9932 30.8084 23.0098 30.6838 23.0513L28.5063 23.7776L24.8938 16.5526C24.8108 16.3866 24.6832 16.247 24.5254 16.1495C24.3675 16.0519 24.1856 16.0002 24.0001 16.0001H14.0001V13.0001H21.0001C21.2653 13.0001 21.5196 12.8947 21.7072 12.7072C21.8947 12.5196 22.0001 12.2653 22.0001 12.0001C22.0001 11.7348 21.8947 11.4805 21.7072 11.293C21.5196 11.1054 21.2653 11.0001 21.0001 11.0001H14.0001V9.87506C14.9427 9.63167 15.7643 9.05283 16.3107 8.24705C16.8571 7.44127 17.0909 6.46387 16.9682 5.49806C16.8455 4.53224 16.3748 3.64433 15.6443 3.00074C14.9138 2.35715 13.9737 2.00208 13.0001 2.00208C12.0265 2.00208 11.0864 2.35715 10.3558 3.00074C9.62534 3.64433 9.15463 4.53224 9.03196 5.49806C8.90929 6.46387 9.14306 7.44127 9.68948 8.24705C10.2359 9.05283 11.0574 9.63167 12.0001 9.87506V11.2263C9.8439 11.7191 7.9447 12.9886 6.66494 14.7926C5.38519 16.5965 4.81452 18.8085 5.06184 21.0064C5.30916 23.2043 6.35715 25.2342 8.0058 26.7086C9.65445 28.183 11.7883 28.9988 14.0001 29.0001C18.1901 29.0001 21.9613 26.1613 22.9688 22.2501C23.0017 22.1228 23.0091 21.9904 22.9908 21.8603C22.9724 21.7302 22.9286 21.605 22.8619 21.4918C22.7951 21.3787 22.7067 21.2797 22.6018 21.2007C22.4968 21.1217 22.3773 21.0641 22.2501 21.0313C22.1229 20.9985 21.9904 20.991 21.8603 21.0094C21.7302 21.0277 21.605 21.0715 21.4918 21.1383C21.3787 21.205 21.2798 21.2934 21.2007 21.3984C21.1217 21.5033 21.0642 21.6228 21.0313 21.7501C20.2613 24.7501 17.2388 27.0001 14.0001 27.0001C12.3191 26.9995 10.6944 26.394 9.42303 25.2943C8.15166 24.1946 7.31848 22.6741 7.07578 21.0107C6.83308 19.3473 7.19707 17.6521 8.10123 16.235C9.00539 14.8179 10.3893 13.7734 12.0001 13.2926V17.0001C12.0001 17.2653 12.1054 17.5196 12.293 17.7072C12.4805 17.8947 12.7349 18.0001 13.0001 18.0001H23.3813L27.1051 25.4476C27.213 25.6627 27.3949 25.8318 27.6174 25.9236C27.8399 26.0154 28.0881 26.024 28.3163 25.9476L31.3163 24.9476C31.5677 24.8637 31.7755 24.6835 31.894 24.4465C32.0126 24.2096 32.0323 23.9353 31.9488 23.6838ZM11.0001 6.00006C11.0001 5.6045 11.1174 5.21782 11.3371 4.88892C11.5569 4.56002 11.8693 4.30367 12.2347 4.1523C12.6002 4.00092 13.0023 3.96132 13.3903 4.03849C13.7782 4.11566 14.1346 4.30614 14.4143 4.58584C14.694 4.86555 14.8845 5.22192 14.9616 5.60988C15.0388 5.99784 14.9992 6.39997 14.8478 6.76543C14.6965 7.13088 14.4401 7.44323 14.1112 7.663C13.7823 7.88276 13.3956 8.00006 13.0001 8.00006C12.4696 8.00006 11.9609 7.78935 11.5859 7.41427C11.2108 7.0392 11.0001 6.53049 11.0001 6.00006Z" fill="#0E121B"/>
</svg>
