<svg width="60" height="20" viewBox="0 0 60 20" fill="none" xmlns="http://www.w3.org/2000/svg">
<g clip-path="url(#clip0_6024_3728)">
<path fill-rule="evenodd" clip-rule="evenodd" d="M29.4065 10.0771C29.4065 8.75419 28.7339 7.65169 27.9367 7.65169C27.1393 7.65169 26.4666 8.75419 26.4666 10.0771C26.4666 11.3802 27.1393 12.5027 27.9367 12.5027C28.7339 12.5027 29.4065 11.3802 29.4065 10.0771ZM30.0419 6.6894C30.6025 7.61148 30.9139 8.81419 30.9139 10.0771C30.9139 11.3402 30.6025 12.5429 30.0419 13.465C29.4813 14.3669 28.7339 14.8481 27.9367 14.8481C27.4134 14.8481 26.94 14.5475 26.5289 13.9461L26.4666 13.8661V19.2346L24.9594 20V5.48648H26.4666V6.20836L26.5289 6.10794C26.9775 5.40648 27.4881 5.30627 27.9367 5.30627C28.7215 5.30627 29.4689 5.78752 30.0419 6.6894Z" fill="#31322F"/>
<path fill-rule="evenodd" clip-rule="evenodd" d="M32.9571 10.0771C32.9571 11.4002 33.6298 12.5027 34.4272 12.5027C35.2244 12.5027 35.897 11.4002 35.897 10.0771C35.897 8.77419 35.2244 7.65169 34.4272 7.65169C33.6298 7.65169 32.9571 8.77419 32.9571 10.0771ZM32.3217 13.465C31.7611 12.5429 31.4497 11.3402 31.4497 10.0771C31.4497 8.81419 31.7611 7.61148 32.3217 6.6894C32.8823 5.78752 33.6298 5.30627 34.4272 5.30627C34.9502 5.30627 35.4236 5.6069 35.8347 6.20836L35.897 6.28836V5.48648H37.4043V14.6679H35.897V13.9461L35.8347 14.0465C35.3864 14.7479 34.8755 14.8481 34.4272 14.8481C33.6422 14.8481 32.8949 14.3669 32.3217 13.465Z" fill="#31322F"/>
<path fill-rule="evenodd" clip-rule="evenodd" d="M38.9119 20.0001L40.2699 14.688L37.9901 5.48651H39.6593L41.0795 11.1998L42.5245 5.48651H44.1814L40.5438 20.0001H38.9119Z" fill="#31322F"/>
<path fill-rule="evenodd" clip-rule="evenodd" d="M2.91618 6.85192C1.81794 6.85192 0.924375 8.29879 0.924375 10.0771C0.924375 11.8555 1.81794 13.3023 2.91618 13.3023C4.01456 13.3023 4.90812 11.8555 4.90812 10.0771C4.90812 8.29879 4.01456 6.85192 2.91618 6.85192ZM2.91618 14.75C2.13642 14.75 1.40249 14.2709 0.849804 13.4007C0.30217 12.4996 0 11.3186 0 10.0771C0 8.83567 0.30217 7.65463 0.850969 6.75192C1.40262 5.88359 2.13642 5.40442 2.91618 5.40442C3.70501 5.40442 4.36929 6.07609 4.78746 6.63942L4.90812 6.80192V5.60463H5.83262V14.5498H4.90812V13.3523L4.78746 13.5146C4.36929 14.0782 3.70501 14.75 2.91618 14.75Z" fill="#31322F"/>
<path fill-rule="evenodd" clip-rule="evenodd" d="M7.5062 14.5498V7.01232H6.65912V5.60461H7.5062V2.96086C7.5062 1.34086 8.30552 0.0718994 9.32608 0.0718994H10.4887L10.2541 1.47961H9.35107C8.86079 1.47961 8.43058 2.19044 8.43058 3.00107V5.60461H10.187V7.01232H8.43058V14.5498H7.5062Z" fill="#31322F"/>
<path fill-rule="evenodd" clip-rule="evenodd" d="M13.6734 14.5498C12.6698 14.5498 11.8535 13.2356 11.8535 11.6209V7.01232H11.0063V5.60461H11.8535V0.0718994H12.7777V5.60461H14.5343V7.01232H12.7777V11.5809C12.7777 12.3979 13.2166 13.1421 13.6985 13.1421H14.6013L14.836 14.5498H13.6734Z" fill="#31322F"/>
<path fill-rule="evenodd" clip-rule="evenodd" d="M17.6544 6.91191C16.9398 6.91191 16.2763 7.74108 16.0031 8.97524L15.9942 9.00212L15.9413 9.17295H19.3683L19.302 8.9617C19.0459 7.74191 18.3821 6.91191 17.6544 6.91191ZM17.6529 14.71C16.9294 14.7092 16.2638 14.225 15.7785 13.3465C15.3331 12.5702 15.0726 11.5969 15.0243 10.5298C15.0122 10.3894 15.0122 10.2573 15.0122 10.1173C15.0122 9.76691 15.0368 9.41128 15.0852 9.06045C15.1923 8.25628 15.4318 7.50566 15.7781 6.88899C16.2606 6.03483 16.9446 5.54462 17.6544 5.54462C18.3705 5.54462 19.0416 6.02253 19.5441 6.89024C19.9046 7.53253 20.1441 8.28212 20.2358 9.05691C20.3083 9.7417 20.3101 10.1669 20.3023 10.38H15.8993V10.5384C16.0282 12.1225 16.7712 13.3215 17.6284 13.3427C18.1553 13.3013 18.6751 12.9544 19.0353 12.41L19.8065 13.1511C19.5972 13.5079 19.3731 13.8015 19.1236 14.0459C18.7169 14.4384 18.2083 14.6682 17.6529 14.71Z" fill="#31322F"/>
<path fill-rule="evenodd" clip-rule="evenodd" d="M21.2101 14.5498V5.60459H22.1348V6.73522L22.2626 6.50813C22.5904 5.92605 23.554 5.45167 24.1946 5.40771L23.969 6.89334C22.9523 6.94022 22.1348 8.21563 22.1348 9.77646V14.5498H21.2101Z" fill="#31322F"/>
<path fill-rule="evenodd" clip-rule="evenodd" d="M52.1632 8.02229C52.7128 7.51041 53.2295 7.02896 53.7821 6.51437C53.6031 6.00916 53.6468 6.13062 53.4838 5.65396C53.3111 5.14896 53.3762 4.95041 53.7329 4.94625C54.7714 4.93458 55.8102 4.93312 56.8488 4.94187C57.1573 4.94458 57.2318 5.15708 57.0771 5.595C56.5633 7.04875 56.0439 8.49729 55.5199 9.94146C55.3525 10.4025 55.206 10.4015 55.0311 9.95041C54.8514 9.48687 54.8993 9.60146 54.7071 9.07604C54.1653 9.58229 53.6239 10.0883 53.0934 10.584C53.1253 10.7177 53.1659 10.8035 53.1992 10.8967C53.5989 12.016 53.7774 12.5506 54.1904 13.6573C54.6798 14.9687 55.7056 15.0477 56.2882 13.8356C56.353 13.7008 56.4123 13.5577 56.4652 13.4102C57.4454 10.6781 58.4261 7.94666 59.4004 5.20916C59.4992 4.93208 59.5883 4.62937 59.6311 4.32021C59.8019 3.08791 59.2338 1.92291 58.4354 1.91604C56.335 1.89812 54.2341 1.89541 52.1337 1.92521C51.177 1.93875 50.602 3.48021 51.0223 4.835C51.1592 5.27604 51.3235 5.69521 51.4775 6.1225C51.7671 6.92687 51.8436 7.13854 52.1632 8.02229Z" fill="#306E9A"/>
<path fill-rule="evenodd" clip-rule="evenodd" d="M47.4929 16.463C47.4938 15.449 47.4955 13.4642 47.4955 13.4642C47.4955 13.4642 47.2373 13.4598 46.8882 13.4598C46.5328 13.4598 46.4596 13.2578 46.635 12.7634C47.1461 11.3236 47.6629 9.8888 48.1851 8.45922C48.3402 8.03463 48.4775 7.99734 48.647 8.46942C49.1625 9.9063 49.6797 11.3417 50.1885 12.7848C50.351 13.2455 50.2775 13.4471 49.9498 13.464C49.6115 13.464 49.3223 13.4634 49.3223 13.4634L49.3221 16.4711C49.3221 16.4711 50.7012 16.4715 51.5074 16.4715C52.4503 16.449 53.0035 15.0721 52.6474 13.664C52.6079 13.5075 52.5612 13.3544 52.5089 13.2078C51.5406 10.4934 50.5728 7.77859 49.5988 5.06942C49.5002 4.79526 49.3833 4.5213 49.2398 4.30817C48.6678 3.45838 47.7637 3.66234 47.3623 4.76109C46.3063 7.65213 45.2583 10.5513 44.2276 13.4659C43.7582 14.7936 44.2935 16.3555 45.2252 16.4501C45.5286 16.4809 46.8239 16.463 47.4929 16.463Z" fill="#1F4066"/>
</g>
<defs>
<clipPath id="clip0_6024_3728">
<rect width="60" height="20" fill="white"/>
</clipPath>
</defs>
</svg>
