<svg width="20" height="20" viewBox="0 0 20 20" fill="none" xmlns="http://www.w3.org/2000/svg">
<g clip-path="url(#clip0_6024_3693)">
<mask id="mask0_6024_3693" style="mask-type:luminance" maskUnits="userSpaceOnUse" x="0" y="0" width="20" height="20">
<path d="M20 0H-4.57764e-05V20H20V0Z" fill="white"/>
</mask>
<g mask="url(#mask0_6024_3693)">
<path d="M1.95055 0.340759H18.0493C18.4763 0.340759 18.8858 0.510383 19.1877 0.812315C19.4897 1.11425 19.6593 1.52376 19.6593 1.95075V18.0494C19.6593 18.4764 19.4897 18.8859 19.1878 19.1878C18.8858 19.4897 18.4764 19.6593 18.0494 19.6593H1.95031C1.5234 19.6593 1.11397 19.4897 0.812101 19.1878C0.510228 18.886 0.340637 18.4766 0.340637 18.0497V1.95064C0.340637 1.73923 0.382278 1.52988 0.463184 1.33456C0.544089 1.13924 0.662674 0.961773 0.812168 0.812281C0.961662 0.66279 1.13914 0.544207 1.33446 0.463303C1.52978 0.3824 1.73913 0.340759 1.95055 0.340759Z" fill="#FDB913"/>
<path d="M18.0496 0.340728C18.4765 0.340857 18.8859 0.510534 19.1878 0.812448C19.4896 1.11436 19.6592 1.5238 19.6593 1.95072V18.0494C19.6592 18.4763 19.4897 18.8857 19.1878 19.1876C18.8859 19.4895 18.4765 19.6592 18.0496 19.6593H1.95064C1.73921 19.6593 1.52984 19.6177 1.3345 19.5368C1.13915 19.4559 0.961657 19.3374 0.812153 19.1879C0.66265 19.0384 0.544067 18.8609 0.463179 18.6655C0.382291 18.4702 0.340683 18.2608 0.340733 18.0494V1.95072C0.340691 1.73929 0.382303 1.52993 0.463192 1.33458C0.544081 1.13924 0.662662 0.96174 0.812163 0.812231C0.961663 0.662722 1.13915 0.54413 1.3345 0.463229C1.52984 0.382327 1.73921 0.340701 1.95064 0.340728H18.0496ZM18.0496 0H1.95064C1.43345 0.00056021 0.937604 0.206266 0.571907 0.571979C0.206209 0.937692 0.000529488 1.43354 0 1.95072V18.0494C0.000572292 18.5665 0.206269 19.0624 0.571961 19.428C0.937653 19.7937 1.43347 19.9994 1.95064 20H18.0496C18.5667 19.9994 19.0625 19.7937 19.4282 19.428C19.7938 19.0623 19.9995 18.5665 20 18.0494V1.95072C19.9995 1.43357 19.7939 0.937737 19.4282 0.572023C19.0626 0.20631 18.5667 0.000588208 18.0496 0Z" fill="white"/>
<path d="M11.1273 10.2086L11.1257 6.74976L12.0286 6.5355V6.98893C12.0286 6.98893 12.2625 6.39263 12.8052 6.25422C12.8862 6.22811 12.9725 6.22232 13.0563 6.23735V7.11987C12.8937 7.12199 12.7331 7.15542 12.5832 7.21834C12.2496 7.35008 12.0817 7.63756 12.0817 8.07641L12.0823 9.98628L11.1273 10.2086Z" fill="#231F20"/>
<path d="M6.36788 11.3333C6.36788 11.3333 6.22109 11.1131 6.22109 10.3349V8.61272L5.75653 8.72323V8.01378L6.22213 7.90384V7.13046L7.18213 6.90369V7.67707L7.8605 7.51594V8.22459L7.18213 8.38561C7.18213 8.38561 7.18109 9.7966 7.18213 10.1393C7.18213 10.9366 7.39375 11.0897 7.39375 11.0897L6.36788 11.3333Z" fill="#231F20"/>
<path d="M7.96083 9.27563C7.96083 8.66074 8.0484 8.21214 8.23638 7.86785C8.46005 7.4593 8.82684 7.19305 9.36118 7.0714C10.4144 6.8319 10.7945 7.45528 10.7798 8.29121C10.7741 8.59016 10.7755 8.73579 10.7755 8.73579L8.92003 9.17189V9.20184C8.92003 9.78586 9.04248 10.063 9.41259 9.98452C9.73232 9.91704 9.82127 9.71678 9.84651 9.46912C9.85065 9.42918 9.8526 9.32762 9.8526 9.32762L10.7218 9.11933C10.7218 9.11933 10.7239 9.19048 10.7226 9.27035C10.715 9.60225 10.6185 10.4255 9.41041 10.7112C8.26599 10.9828 7.96083 10.2839 7.96083 9.27563ZM9.39974 7.71568C9.09229 7.78545 8.93104 8.08705 8.92404 8.58672L9.85742 8.36442C9.85902 8.34182 9.85925 8.29201 9.85902 8.21397C9.85742 7.83675 9.74082 7.63764 9.39974 7.71568Z" fill="#231F20"/>
<path d="M16.3055 7.25294C16.2696 6.19954 16.5429 5.3635 17.7182 5.09725C18.4672 4.92706 18.7517 5.12193 18.8958 5.31025C19.0343 5.48997 19.0878 5.73234 19.0878 6.07181L19.0886 6.13413L18.1691 6.35263C18.1691 6.35263 18.1684 6.22869 18.1684 6.22467C18.1691 5.82209 18.0572 5.669 17.7648 5.74221C17.417 5.82955 17.2766 6.1596 17.2766 6.81581C17.2766 7.04878 17.2776 7.09055 17.2776 7.122C17.2776 7.78888 17.3687 8.09414 17.7695 8.01025C18.1171 7.93841 18.1647 7.63314 18.1703 7.36552C18.171 7.32352 18.1728 7.18902 18.1728 7.18902L19.0909 6.97212C19.0909 6.97212 19.0918 7.03994 19.0918 7.11534C19.0895 7.98982 18.6286 8.54091 17.7651 8.74186C16.5755 9.02073 16.3425 8.33331 16.3055 7.25294Z" fill="#231F20"/>
<path d="M13.127 8.72773C13.127 7.92646 13.5964 7.67307 14.3029 7.38077C14.9382 7.11796 14.952 6.98748 14.9546 6.7591C14.9582 6.56688 14.869 6.40242 14.5527 6.4831C14.4472 6.50435 14.352 6.5606 14.2825 6.64274C14.213 6.72487 14.1733 6.82807 14.1698 6.93561C14.1647 6.99464 14.1627 7.0539 14.1639 7.11314L13.2731 7.3235C13.2671 7.14598 13.2878 6.96856 13.3346 6.7972C13.477 6.31807 13.8996 5.99571 14.629 5.82689C15.5767 5.6085 15.8927 6.0244 15.8938 6.67131V8.20327C15.8938 8.94417 16.0313 9.05273 16.0313 9.05273L15.1568 9.25965C15.1086 9.1586 15.0694 9.05349 15.0396 8.94554C15.0396 8.94554 14.8481 9.428 14.1877 9.58316C13.4942 9.7467 13.127 9.31691 13.127 8.72773ZM14.9485 7.63359C14.8011 7.73693 14.6455 7.82805 14.4833 7.90603C14.1918 8.04845 14.06 8.22415 14.06 8.49476C14.06 8.7291 14.2052 8.883 14.469 8.81782C14.752 8.74643 14.9485 8.48237 14.9485 8.11547V7.63359Z" fill="#231F20"/>
<path d="M1.34831 13.7579C1.2485 13.7578 1.15057 13.7308 1.06483 13.6797C0.979094 13.6286 0.908716 13.5553 0.861107 13.4676C0.813499 13.3799 0.790422 13.2809 0.794305 13.1812C0.798188 13.0815 0.828887 12.9846 0.883172 12.9009L0.889369 12.8929L0.899812 12.8901L2.20559 12.5818V13.5735L2.18528 13.5782C1.88908 13.6495 1.53503 13.7306 1.46215 13.7461C1.42473 13.754 1.38657 13.758 1.34831 13.7579Z" fill="#231F20"/>
<path d="M1.34831 15.0265C1.20138 15.0265 1.06044 14.9682 0.956477 14.8644C0.852514 14.7605 0.794033 14.6197 0.793886 14.4727C0.793586 14.3657 0.824624 14.2609 0.883173 14.1713L0.88937 14.162L0.899813 14.1593L2.2056 13.8512V14.8429L2.18528 14.8481C1.88908 14.9192 1.53503 15.0012 1.46216 15.0158C1.42465 15.0231 1.38652 15.0266 1.34831 15.0265Z" fill="#231F20"/>
<path d="M1.34831 16.2975C1.20134 16.2974 1.0604 16.239 0.956453 16.1351C0.852504 16.0312 0.794037 15.8903 0.793888 15.7433C0.793474 15.6362 0.824521 15.5314 0.883175 15.4418L0.889372 15.4318L2.2056 15.1216V16.1133L2.18528 16.1186C1.87244 16.1939 1.52505 16.2724 1.46216 16.2862C1.42467 16.2937 1.38654 16.2975 1.34831 16.2975Z" fill="#231F20"/>
<path d="M1.19424 12.5428L1.19389 6.99418L2.20554 6.75513V12.3036L1.19424 12.5428Z" fill="#231F20"/>
<path d="M3.714 12.0707C3.714 11.9052 3.64824 11.7464 3.53119 11.6294C3.41414 11.5124 3.25539 11.4466 3.08986 11.4466C2.92432 11.4466 2.76557 11.5124 2.64852 11.6294C2.53147 11.7464 2.46571 11.9052 2.46571 12.0707L2.46675 17.2567C2.4673 17.7045 2.64538 18.1339 2.96195 18.4507C3.27852 18.7675 3.70776 18.9458 4.15561 18.9467C4.62809 18.9467 5.9224 18.9444 5.9224 18.9444L5.92297 16.7809C5.92332 15.5988 5.92355 14.3957 5.92355 14.3683C5.9237 14.2338 5.89065 14.1013 5.82733 13.9827C5.76401 13.864 5.67237 13.7628 5.56055 13.6881L3.98587 12.6186C3.98587 12.6186 3.98553 14.9405 3.98553 15.0472C3.98553 15.0828 3.97138 15.117 3.9462 15.1421C3.92102 15.1673 3.88687 15.1815 3.85126 15.1815C3.81564 15.1815 3.78149 15.1673 3.75631 15.1421C3.73113 15.117 3.71698 15.0828 3.71698 15.0472C3.71698 15.0211 3.714 12.3915 3.714 12.0707Z" fill="#231F20"/>
<path d="M4.55694 8.20147C4.36559 8.24587 4.18609 8.33105 4.03069 8.4512C3.87528 8.57134 3.74765 8.72362 3.6565 8.89761V8.50765L2.74562 8.72318L2.74665 11.2135C2.90644 11.1503 3.08058 11.1325 3.24983 11.1621C3.41909 11.1917 3.57687 11.2675 3.70573 11.3812V9.77325C3.70573 9.38811 3.89739 9.08043 4.17122 9.02006C4.37722 8.97485 4.54925 9.04852 4.54925 9.41542L4.54994 11.7614L5.50936 11.5364V9.05472C5.50936 8.45303 5.27765 8.03242 4.55694 8.20147Z" fill="#231F20"/>
<path d="M18.4968 4.65024C18.3795 4.65034 18.2648 4.61564 18.1672 4.55053C18.0696 4.48541 17.9935 4.39281 17.9485 4.28444C17.9036 4.17607 17.8918 4.0568 17.9146 3.94172C17.9375 3.82664 17.9939 3.72093 18.0769 3.63795C18.1598 3.55497 18.2655 3.49846 18.3806 3.47557C18.4957 3.45268 18.6149 3.46443 18.7233 3.50935C18.8317 3.55426 18.9243 3.63032 18.9895 3.72789C19.0547 3.82546 19.0894 3.94017 19.0893 4.05749C19.0892 4.21461 19.0267 4.36526 18.9156 4.47638C18.8046 4.5875 18.6539 4.65003 18.4968 4.65024ZM18.4968 3.53877C18.3942 3.53875 18.294 3.56914 18.2087 3.62611C18.1234 3.68307 18.0569 3.76405 18.0176 3.85881C17.9783 3.95356 17.968 4.05784 17.988 4.15844C18.008 4.25905 18.0574 4.35146 18.1299 4.42401C18.2024 4.49655 18.2948 4.54597 18.3954 4.566C18.496 4.58603 18.6003 4.57579 18.6951 4.53655C18.7898 4.49732 18.8708 4.43087 18.9279 4.3456C18.9849 4.26033 19.0153 4.16006 19.0153 4.05749C19.0152 3.91999 18.9606 3.78815 18.8633 3.6909C18.7661 3.59366 18.6343 3.53894 18.4968 3.53877Z" fill="#231F20"/>
<path d="M18.2809 3.70414H18.5364C18.5614 3.70146 18.5867 3.70445 18.6104 3.71289C18.634 3.72133 18.6555 3.73499 18.6731 3.75287C18.6908 3.77075 18.7042 3.79237 18.7123 3.81615C18.7205 3.83992 18.7232 3.86522 18.7202 3.89017C18.7202 3.98404 18.6785 4.05623 18.5996 4.06851V4.06988C18.6714 4.07723 18.7092 4.11682 18.7128 4.21861C18.7142 4.26452 18.7149 4.32144 18.7171 4.36574C18.7171 4.3782 18.7203 4.39046 18.7263 4.40138C18.7322 4.41231 18.7409 4.42156 18.7514 4.42828H18.6208C18.6083 4.40914 18.6016 4.38685 18.6013 4.36402C18.5973 4.32075 18.5983 4.2799 18.5963 4.22734C18.5944 4.14838 18.5702 4.11384 18.4909 4.11384H18.3963V4.42828H18.2809V3.70414ZM18.4888 4.02662C18.5045 4.02806 18.5203 4.02599 18.5351 4.02057C18.5499 4.01516 18.5633 4.00652 18.5744 3.99529C18.5855 3.98405 18.5939 3.97051 18.5991 3.95562C18.6042 3.94074 18.6061 3.92489 18.6044 3.90922C18.6044 3.83198 18.571 3.79136 18.4949 3.79136H18.3963V4.02662H18.4888Z" fill="#231F20"/>
</g>
</g>
<defs>
<clipPath id="clip0_6024_3693">
<rect width="20" height="20" fill="white"/>
</clipPath>
</defs>
</svg>
