<svg width="44" height="14" viewBox="0 0 44 14" fill="none" xmlns="http://www.w3.org/2000/svg">
<g clip-path="url(#clip0_5001_10055)">
<path d="M22.3321 4.45807C22.3075 6.40053 24.0632 7.48443 25.3858 8.12894C26.7446 8.79014 27.2011 9.21419 27.1957 9.80556C27.1855 10.7105 26.1118 11.1099 25.107 11.1254C23.3539 11.1526 22.3346 10.6521 21.5243 10.2736L20.8928 13.2286C21.7058 13.6033 23.2112 13.93 24.7723 13.9443C28.4368 13.9443 30.8342 12.1355 30.8471 9.33091C30.8615 5.77154 25.9239 5.57453 25.9576 3.98359C25.9692 3.50118 26.4295 2.98638 27.4382 2.85549C27.9375 2.78937 29.3157 2.73877 30.8783 3.45834L31.4916 0.599299C30.6513 0.293324 29.5713 0.000335693 28.2266 0.000335693C24.7775 0.000335693 22.3517 1.83383 22.3321 4.45807ZM37.3848 0.2466C36.7157 0.2466 36.1518 0.636913 35.9001 1.23588L30.6656 13.7343H34.3274L35.0561 11.7205H39.5307L39.9534 13.7343H43.1808L40.3644 0.2466H37.3848ZM37.8971 3.89014L38.9538 8.95494H36.0597L37.8971 3.89014ZM17.8924 0.246769L15.0061 13.7342H18.4954L21.3804 0.246431L17.8924 0.246769ZM12.7305 0.246769L9.09856 9.42689L7.6294 1.62113C7.45702 0.749757 6.77625 0.2466 6.02025 0.2466H0.0832329L7.62939e-05 0.638263C1.21892 0.902744 2.60374 1.32932 3.44273 1.78576C3.95617 2.06458 4.10258 2.30831 4.27126 2.97087L7.05388 13.7343H10.7413L16.3946 0.2466L12.7305 0.246769Z" fill="white"/>
</g>
<defs>
<clipPath id="clip0_5001_10055">
<rect width="43.1807" height="14" fill="white"/>
</clipPath>
</defs>
</svg>
