<svg width="21" height="16" viewBox="0 0 21 16" fill="none" xmlns="http://www.w3.org/2000/svg">
<g clip-path="url(#clip0_5001_10058)">
<path d="M3.73961 15.9207V14.8617C3.73961 14.4557 3.49245 14.191 3.06881 14.191C2.85703 14.191 2.62757 14.2616 2.46869 14.4911C2.34519 14.2969 2.16871 14.191 1.90395 14.191C1.72738 14.191 1.55098 14.2439 1.40972 14.4381V14.2263H1.03906V15.9207H1.40972V14.9852C1.40972 14.6852 1.56859 14.544 1.81575 14.544C2.06274 14.544 2.1864 14.7028 2.1864 14.9852V15.9207H2.55705V14.9852C2.55705 14.6852 2.73345 14.544 2.96292 14.544C3.21008 14.544 3.33358 14.7028 3.33358 14.9852V15.9207H3.73961ZM9.22873 14.2263H8.62869V13.7145H8.25804V14.2263H7.92268V14.5616H8.25796V15.3383C8.25796 15.7266 8.41683 15.956 8.84047 15.956C8.99934 15.956 9.17575 15.9031 9.29941 15.8325L9.19343 15.5147C9.08754 15.5853 8.96405 15.603 8.87577 15.603C8.69928 15.603 8.62869 15.4971 8.62869 15.3206V14.5616H9.22873V14.2263ZM12.3705 14.1909C12.1587 14.1909 12.0176 14.2969 11.9293 14.4381V14.2263H11.5586V15.9207H11.9293V14.9676C11.9293 14.6852 12.0528 14.5264 12.2822 14.5264C12.3528 14.5264 12.4411 14.544 12.5117 14.5617L12.6176 14.2087C12.547 14.191 12.4411 14.191 12.3705 14.191M7.62262 14.3676C7.44606 14.244 7.19898 14.1911 6.93422 14.1911C6.51066 14.1911 6.22829 14.4029 6.22829 14.7382C6.22829 15.0207 6.44007 15.1795 6.81072 15.2324L6.9872 15.2501C7.18137 15.2854 7.28726 15.3383 7.28726 15.4266C7.28726 15.5501 7.14608 15.6384 6.89892 15.6384C6.65177 15.6384 6.45767 15.5501 6.3341 15.4619L6.15762 15.7443C6.35179 15.8855 6.61655 15.9561 6.88123 15.9561C7.37546 15.9561 7.65792 15.7267 7.65792 15.4089C7.65792 15.1089 7.42845 14.95 7.0754 14.8971L6.89892 14.8794C6.74005 14.8617 6.61655 14.8265 6.61655 14.7206C6.61655 14.597 6.74005 14.5264 6.93422 14.5264C7.14608 14.5264 7.35786 14.6146 7.46375 14.6676L7.62262 14.3676ZM17.4715 14.1911C17.2596 14.1911 17.1184 14.297 17.0301 14.4382V14.2264H16.6595V15.9208H17.0301V14.9677C17.0301 14.6853 17.1537 14.5264 17.3831 14.5264C17.4538 14.5264 17.5421 14.5441 17.6126 14.5617L17.7185 14.2088C17.6479 14.1911 17.5421 14.1911 17.4715 14.1911ZM12.7412 15.0736C12.7412 15.5854 13.0941 15.9561 13.6414 15.9561C13.8884 15.9561 14.0649 15.9032 14.2414 15.762L14.0649 15.4619C13.9237 15.5678 13.7825 15.6207 13.6237 15.6207C13.3236 15.6207 13.1118 15.4089 13.1118 15.0736C13.1118 14.7559 13.3236 14.544 13.6237 14.5264C13.7825 14.5264 13.9237 14.5793 14.0649 14.6853L14.2414 14.3853C14.0649 14.244 13.8884 14.1911 13.6414 14.1911C13.0941 14.1911 12.7412 14.5617 12.7412 15.0736ZM16.1653 15.0736V14.2264H15.7947V14.4382C15.6711 14.2794 15.4946 14.1911 15.2652 14.1911C14.7886 14.1911 14.418 14.5617 14.418 15.0736C14.418 15.5854 14.7886 15.9561 15.2652 15.9561C15.5122 15.9561 15.6888 15.8679 15.7947 15.709V15.9208H16.1653V15.0736ZM14.8062 15.0736C14.8062 14.7735 15.0004 14.5264 15.3181 14.5264C15.6181 14.5264 15.83 14.7559 15.83 15.0736C15.83 15.3736 15.6181 15.6207 15.3181 15.6207C15.0004 15.603 14.8062 15.3736 14.8062 15.0736ZM10.3761 14.1911C9.88184 14.1911 9.52879 14.544 9.52879 15.0736C9.52879 15.6031 9.88176 15.9561 10.3937 15.9561C10.6408 15.9561 10.8879 15.8855 11.0821 15.7267L10.9055 15.4619C10.7643 15.5678 10.5878 15.6384 10.4114 15.6384C10.1819 15.6384 9.95243 15.5325 9.89944 15.2324H11.1527V15.0913C11.1704 14.544 10.8527 14.1911 10.3761 14.1911ZM10.376 14.5087C10.6054 14.5087 10.7643 14.65 10.7995 14.9148H9.91705C9.95235 14.6853 10.1112 14.5087 10.376 14.5087ZM19.5717 15.0736V13.5557H19.2011V14.4382C19.0775 14.2794 18.901 14.1911 18.6715 14.1911C18.195 14.1911 17.8243 14.5617 17.8243 15.0736C17.8243 15.5854 18.195 15.9561 18.6715 15.9561C18.9187 15.9561 19.0952 15.8679 19.2011 15.709V15.9208H19.5717V15.0736ZM18.2127 15.0736C18.2127 14.7735 18.4068 14.5264 18.7245 14.5264C19.0246 14.5264 19.2364 14.7559 19.2364 15.0736C19.2364 15.3736 19.0246 15.6207 18.7245 15.6207C18.4068 15.603 18.2127 15.3736 18.2127 15.0736ZM5.82218 15.0736V14.2264H5.45152V14.4382C5.32795 14.2794 5.15146 14.1911 4.922 14.1911C4.44545 14.1911 4.0748 14.5617 4.0748 15.0736C4.0748 15.5854 4.44545 15.9561 4.922 15.9561C5.16915 15.9561 5.34564 15.8679 5.45152 15.709V15.9208H5.82218V15.0736ZM4.44545 15.0736C4.44545 14.7735 4.63963 14.5264 4.95729 14.5264C5.25735 14.5264 5.46921 14.7559 5.46921 15.0736C5.46921 15.3736 5.25735 15.6207 4.95729 15.6207C4.63963 15.603 4.44545 15.3736 4.44545 15.0736Z" fill="white"/>
<path d="M7.5 1.35938H13.0598V11.3494H7.5V1.35938Z" fill="#FF5F00"/>
<path d="M7.85439 6.35409C7.85439 4.32434 8.80748 2.52398 10.2724 1.35904C9.19582 0.511839 7.83678 0 6.35417 0C2.84165 0 0 2.84165 0 6.35409C0 9.86653 2.84165 12.7082 6.35409 12.7082C7.8367 12.7082 9.19574 12.1963 10.2724 11.3491C8.80748 10.2018 7.85439 8.38384 7.85439 6.35409Z" fill="#EB001B"/>
<path d="M20.5615 6.35409C20.5615 9.86645 17.7198 12.7082 14.2074 12.7082C12.7248 12.7082 11.3657 12.1963 10.2891 11.3491C11.7717 10.1842 12.7072 8.38384 12.7072 6.35409C12.7072 4.32434 11.754 2.52398 10.2891 1.35904C11.3656 0.511839 12.7248 0 14.2074 0C17.7198 0 20.5615 2.85934 20.5615 6.35409Z" fill="#F79E1B"/>
</g>
<defs>
<clipPath id="clip0_5001_10058">
<rect width="20.5829" height="16" fill="white"/>
</clipPath>
</defs>
</svg>
