<svg width="41" height="16" viewBox="0 0 41 16" fill="none" xmlns="http://www.w3.org/2000/svg">
<g clip-path="url(#clip0_5001_10072)">
<path d="M28.4661 4.31856C29.5701 4.31856 30.4231 4.61966 31.0755 5.22186C31.7279 5.82398 32.0289 6.62688 32.0289 7.63048V12.4477H30.6239V11.3439H30.5737C29.9715 12.2472 29.1184 12.6988 28.1148 12.6988C27.2617 12.6988 26.509 12.4478 25.9069 11.9461C25.3549 11.4443 25.0036 10.7418 25.0036 9.98907C25.0036 9.18614 25.3047 8.53378 25.9069 8.03197C26.509 7.53017 27.3621 7.32946 28.3657 7.32946C29.269 7.32946 29.9715 7.48005 30.5235 7.83127V7.48005C30.5235 7.01166 30.3486 6.54335 29.9989 6.23817L29.9213 6.17535C29.5199 5.82405 29.0181 5.62335 28.4661 5.62335C27.6131 5.62335 26.9607 5.97462 26.509 6.67715L25.2044 5.87409C26.0072 4.82029 27.061 4.31856 28.4661 4.31856ZM21.3907 0.90625C22.2911 0.90625 23.1468 1.21958 23.8309 1.8039L23.9499 1.90978C24.6524 2.51198 25.0036 3.41527 25.0036 4.36868C25.0036 5.32209 24.6524 6.17519 23.9499 6.8275C23.2474 7.47982 22.3943 7.83111 21.3907 7.83111L18.9821 7.78092V12.4477H17.4766V0.90625H21.3907ZM28.6668 8.5337C28.0646 8.5337 27.5628 8.68424 27.1614 8.98531C26.76 9.23618 26.5592 9.58743 26.5592 10.039C26.5592 10.4405 26.76 10.7917 27.061 10.9925C27.4123 11.2434 27.8137 11.3939 28.2152 11.3939C28.7772 11.3939 29.3392 11.1753 29.7788 10.779L29.8712 10.6914C30.373 10.2398 30.6239 9.68782 30.6239 9.08562C30.1722 8.73441 29.5199 8.53362 28.6668 8.53362M21.4912 2.31119H18.9821V6.32586H21.4912C22.0431 6.32586 22.5951 6.12515 22.9464 5.72374C23.7492 4.97103 23.7492 3.71652 22.9966 2.96374L22.9464 2.91354C22.5449 2.51213 22.0431 2.26123 21.4911 2.31143M40.1581 4.56947L35.1903 15.9604H33.6849L35.5415 11.9962L32.2798 4.61966H33.8856L36.244 10.29H36.2942L38.6025 4.61966H40.1581V4.56947Z" fill="white"/>
<path d="M13.0095 6.7767C13.0095 6.32509 12.9593 5.87348 12.9091 5.42188H6.63672V7.98109H10.1995C10.049 8.78391 9.59735 9.53662 8.89484 9.98831V11.6442H11.0526C12.3071 10.4901 13.0096 8.78391 13.0096 6.77678" fill="#4285F4"/>
<path d="M6.6361 13.2504C8.44253 13.2504 9.94794 12.6482 11.0519 11.6446L8.89422 9.98865C8.29202 10.3901 7.53931 10.641 6.6361 10.641C4.9299 10.641 3.42449 9.48685 2.92269 7.88104H0.714844V9.58716C1.86896 11.8453 4.12708 13.2504 6.6361 13.2504Z" fill="#34A853"/>
<path d="M2.92296 7.88057C2.62194 7.07767 2.62194 6.17445 2.92296 5.32135V3.61523H0.715118C-0.238373 5.47194 -0.238373 7.67986 0.715118 9.58669L2.92296 7.88057Z" fill="#FBBC04"/>
<path d="M6.63676 2.6121C7.59017 2.6121 8.49339 2.9634 9.19598 3.61571L11.1028 1.70889C9.89841 0.604889 8.29268 -0.0474243 6.68688 0.00269337C4.17786 0.00269337 1.86963 1.40779 0.765625 3.66591L2.97355 5.37203C3.42515 3.76622 4.93057 2.6121 6.63676 2.6121Z" fill="#EA4335"/>
</g>
<defs>
<clipPath id="clip0_5001_10072">
<rect width="40.1569" height="16" fill="white"/>
</clipPath>
</defs>
</svg>
