<svg width="21" height="16" viewBox="0 0 21 16" fill="none" xmlns="http://www.w3.org/2000/svg">
<g clip-path="url(#clip0_5001_10063)">
<path d="M13.0734 11.3615H7.50781V1.35938H13.0734V11.3615Z" fill="#6C6BBD"/>
<path d="M7.86195 6.36117C7.86195 4.33214 8.8119 2.52478 10.2913 1.36008C9.20949 0.508382 7.84402 0 6.36028 0C2.84752 0 0 2.84792 0 6.36117C0 9.87433 2.84752 12.7223 6.36028 12.7223C7.8441 12.7223 9.20949 12.2139 10.2913 11.3622C8.8119 10.1975 7.86195 8.39011 7.86195 6.36117Z" fill="#D32011"/>
<path d="M20.5808 6.36117C20.5808 9.87433 17.7332 12.7223 14.2205 12.7223C12.7367 12.7223 11.3713 12.2139 10.2891 11.3622C11.7689 10.1975 12.7188 8.39011 12.7188 6.36117C12.7188 4.33214 11.7689 2.52478 10.2891 1.36008C11.3713 0.508382 12.7367 0 14.2205 0C17.7332 0 20.5808 2.84792 20.5808 6.36117Z" fill="#0099DF"/>
<path d="M14.9598 14.1887C15.0337 14.1887 15.1401 14.2029 15.2214 14.2348L15.1082 14.581C15.0305 14.5491 14.9528 14.5385 14.8785 14.5385C14.6382 14.5385 14.5181 14.6938 14.5181 14.9729V15.92H14.1505V14.2312H14.5145V14.4362C14.6099 14.2878 14.7478 14.1887 14.9598 14.1887ZM13.6017 14.5668H13.0011V15.3299C13.0011 15.4994 13.061 15.6126 13.245 15.6126C13.3405 15.6126 13.4605 15.5807 13.5698 15.5172L13.6757 15.8315C13.5592 15.9127 13.3756 15.9625 13.2166 15.9625C12.7819 15.9625 12.6303 15.7291 12.6303 15.3368V14.5668H12.2874V14.2312H12.6303V13.7188H13.0011V14.2312H13.6017V14.5668ZM8.89865 14.9272C8.93789 14.6833 9.08599 14.5171 9.34762 14.5171C9.58416 14.5171 9.7362 14.6655 9.77503 14.9272H8.89865ZM10.1569 15.0756C10.1532 14.549 9.82802 14.1887 9.35445 14.1887C8.8599 14.1887 8.51369 14.5491 8.51369 15.0755C8.51369 15.6122 8.87405 15.962 9.37954 15.962C9.63393 15.962 9.86685 15.8985 10.0719 15.7255L9.89154 15.4533C9.75043 15.5665 9.57001 15.6301 9.4006 15.6301C9.16398 15.6301 8.94842 15.5205 8.89544 15.2168H10.1495C10.1532 15.1706 10.1569 15.1249 10.1569 15.0756ZM11.7713 14.6623C11.6689 14.5983 11.4606 14.5171 11.245 14.5171C11.0436 14.5171 10.9235 14.5915 10.9235 14.7153C10.9235 14.8281 11.0505 14.86 11.2095 14.881L11.3826 14.9057C11.7502 14.9591 11.9726 15.1144 11.9726 15.4113C11.9726 15.7327 11.6899 15.9624 11.2026 15.9624C10.9268 15.9624 10.6724 15.8917 10.4709 15.7433L10.6441 15.457C10.7678 15.5524 10.9519 15.6337 11.2062 15.6337C11.457 15.6337 11.5912 15.5597 11.5912 15.4287C11.5912 15.3336 11.4958 15.2802 11.2944 15.2523L11.1213 15.2277C10.7432 15.1743 10.5381 15.0048 10.5381 14.7294C10.5381 14.3937 10.8139 14.1887 11.2414 14.1887C11.5099 14.1887 11.7538 14.249 11.9301 14.3654L11.7713 14.6623ZM16.3027 14.5376C16.2271 14.5376 16.1572 14.5511 16.0921 14.5774C16.029 14.6029 15.9718 14.6408 15.9238 14.689C15.8754 14.7382 15.8375 14.7967 15.8122 14.8609C15.7852 14.9276 15.7717 15.0011 15.7717 15.0812C15.7717 15.1617 15.7851 15.2349 15.8122 15.3016C15.8393 15.3685 15.8765 15.4258 15.9238 15.4735C15.9718 15.5216 16.029 15.5596 16.0921 15.5851C16.1572 15.6118 16.2271 15.6248 16.3027 15.6248C16.3783 15.6248 16.4487 15.6119 16.5134 15.5851C16.5767 15.5597 16.6342 15.5217 16.6825 15.4735C16.7306 15.4258 16.7678 15.3684 16.7953 15.3016C16.8224 15.2349 16.8358 15.1617 16.8358 15.0812C16.8358 15.0011 16.8224 14.9276 16.7953 14.8609C16.7678 14.7941 16.7306 14.7367 16.6825 14.689C16.6342 14.6408 16.5767 14.6028 16.5134 14.5774C16.4465 14.5506 16.3749 14.5371 16.3028 14.5377M16.3028 14.1888C16.4338 14.1887 16.5552 14.2115 16.6668 14.2571C16.7784 14.3025 16.875 14.365 16.9564 14.4448C17.0383 14.5251 17.1034 14.6211 17.1477 14.727C17.1938 14.8359 17.2168 14.954 17.2168 15.0813C17.2168 15.2087 17.1938 15.3268 17.1477 15.4356C17.1034 15.5416 17.0383 15.6378 16.9563 15.7183C16.8751 15.7979 16.7784 15.8603 16.6669 15.9059C16.5551 15.9512 16.4338 15.9739 16.3028 15.9739C16.1717 15.9739 16.0504 15.9512 15.9388 15.9059C15.8272 15.8603 15.7314 15.7979 15.6505 15.7183C15.5689 15.6376 15.5042 15.5415 15.4599 15.4356C15.4138 15.3268 15.3908 15.2087 15.3908 15.0813C15.3908 14.954 15.4138 14.8359 15.4599 14.7271C15.5042 14.6213 15.569 14.5254 15.6505 14.4448C15.7333 14.3638 15.8313 14.3 15.9388 14.2571C16.0504 14.2115 16.1717 14.1887 16.3028 14.1888ZM6.75208 15.0755C6.75208 14.7788 6.94665 14.5349 7.26448 14.5349C7.56824 14.5349 7.77326 14.7682 7.77326 15.0756C7.77326 15.383 7.56824 15.6159 7.26448 15.6159C6.94665 15.6159 6.75208 15.3724 6.75208 15.0755ZM8.11948 15.0756V14.2312H7.7522V14.4363C7.63538 14.2842 7.45905 14.1888 7.21881 14.1888C6.74524 14.1888 6.37435 14.5596 6.37435 15.0756C6.37435 15.5913 6.74524 15.9625 7.21881 15.9625C7.45905 15.9625 7.63529 15.8671 7.7522 15.7151V15.9201H8.11948V15.0756ZM6.04912 15.9201V14.8601C6.04912 14.4609 5.79473 14.1924 5.38508 14.1888C5.16953 14.1852 4.94665 14.2523 4.7914 14.4892C4.67489 14.302 4.49093 14.1888 4.23292 14.1888C4.0529 14.1888 3.87618 14.2418 3.73829 14.4395V14.2312H3.37109V15.9201H3.74191V14.9839C3.74191 14.6906 3.90448 14.535 4.15517 14.535C4.39911 14.535 4.52285 14.6939 4.52285 14.9803V15.9201H4.89375V14.9838C4.89375 14.6906 5.06356 14.5349 5.30701 14.5349C5.55819 14.5349 5.67831 14.6938 5.67831 14.9802V15.9201H6.04912Z" fill="white"/>
</g>
<defs>
<clipPath id="clip0_5001_10063">
<rect width="20.5829" height="16" fill="white"/>
</clipPath>
</defs>
</svg>
