<svg width="39" height="16" viewBox="0 0 39 16" fill="none" xmlns="http://www.w3.org/2000/svg">
<g clip-path="url(#clip0_5001_10070)">
<path d="M7.09399 2.0552C6.63901 2.59359 5.9109 3.01839 5.18286 2.95765C5.09187 2.22969 5.44827 1.45608 5.8654 0.978275C6.32038 0.42472 7.11674 0.0303318 7.76137 0C7.83719 0.75837 7.54138 1.50157 7.09399 2.0552ZM7.75386 3.1018C6.69968 3.04114 5.79723 3.70085 5.29668 3.70085C4.78863 3.70085 4.0226 3.13213 3.1884 3.1473C2.10396 3.16246 1.09528 3.77668 0.541649 4.75503C-0.595943 6.71166 0.245915 9.60872 1.34552 11.2013C1.88398 11.99 2.52861 12.8545 3.37797 12.8242C4.18191 12.7939 4.5004 12.301 5.47117 12.301C6.44944 12.301 6.73009 12.8242 7.57945 12.809C8.45915 12.7939 9.01278 12.0204 9.55124 11.2316C10.1655 10.3368 10.4158 9.46457 10.4309 9.41907C10.4158 9.4039 8.73221 8.75936 8.71704 6.81782C8.70188 5.19492 10.0442 4.42138 10.1049 4.37589C9.34643 3.25346 8.16341 3.13213 7.75386 3.1018ZM13.8437 0.902446V12.7257H15.6789V8.68353H18.2195C20.5401 8.68353 22.1707 7.09096 22.1707 4.78544C22.1707 2.48 20.5705 0.902521 18.2802 0.902521L13.8437 0.902446ZM15.6789 2.44959H17.7948C19.3875 2.44959 20.2975 3.29896 20.2975 4.79295C20.2975 6.28694 19.3875 7.14396 17.7872 7.14396H15.6789V2.44959ZM25.5227 12.8166C26.6754 12.8166 27.7447 12.2327 28.2301 11.3075H28.268V12.7256H29.9668V6.84057C29.9668 5.13426 28.6017 4.03458 26.5009 4.03458C24.5519 4.03458 23.111 5.14942 23.0579 6.68133H24.7112C24.8477 5.95329 25.5226 5.47549 26.4479 5.47549C27.5703 5.47549 28.1997 5.99879 28.1997 6.96197V7.6141L25.9094 7.7506C23.7784 7.87951 22.6257 8.7517 22.6257 10.2685C22.6257 11.8004 23.8163 12.8166 25.5227 12.8166ZM26.0155 11.4136C25.0373 11.4136 24.4154 10.9435 24.4154 10.2229C24.4154 9.47981 25.0145 9.04751 26.1597 8.97926L28.1997 8.85035V9.51765C28.1997 10.6249 27.2594 11.4136 26.0156 11.4136M32.2344 15.9412C34.0242 15.9412 34.866 15.2587 35.6016 13.1882L38.8246 4.14832H36.959L34.7977 11.133H34.7597L32.5984 4.14832H30.6797L33.789 12.7559L33.6221 13.2792C33.3416 14.1665 32.8865 14.5078 32.0751 14.5078C31.931 14.5078 31.6504 14.4927 31.5366 14.4775V15.8957C31.6428 15.926 32.0977 15.9412 32.2343 15.9412" fill="white"/>
</g>
<defs>
<clipPath id="clip0_5001_10070">
<rect width="38.8246" height="16" fill="white"/>
</clipPath>
</defs>
</svg>
