<svg width="20" height="20" viewBox="0 0 20 20" fill="none" xmlns="http://www.w3.org/2000/svg">
<g clip-path="url(#clip0_6024_3743)">
<path d="M7.82391 4.00031C7.6549 4.0003 7.49143 4.04929 7.36293 4.13845C7.23442 4.22762 7.14932 4.35112 7.12294 4.48671L5.95793 10.4867L4.88753 16L4.88689 16.0046L4.88818 16L5.95858 10.4867C6.01299 10.2065 6.31003 10.0003 6.65916 10.0003H10.0721C13.5069 10.0003 16.4222 7.96492 16.9546 5.20681C16.9952 4.99726 17.0169 4.7897 17.0219 4.58487V4.58456H17.0215C16.1486 4.21259 15.1236 4.00031 14.0004 4.00031H7.82391Z" fill="#001C64"/>
<path d="M17.0216 4.58466C17.0168 4.78948 16.9948 4.99725 16.9544 5.20681C16.422 7.96491 13.5067 10.0003 10.0719 10.0003H6.6589C6.30977 10.0003 6.01274 10.2065 5.95832 10.4867L4.88792 16L4.21617 19.459C4.20323 19.5258 4.20827 19.5941 4.23093 19.6592C4.25359 19.7242 4.29335 19.7846 4.34746 19.836C4.40157 19.8874 4.46875 19.9287 4.54437 19.957C4.62 19.9853 4.70228 19.9999 4.78555 20H8.49012C8.65914 20 8.8226 19.951 8.9511 19.8618C9.07961 19.7726 9.16471 19.6492 9.19109 19.5136L10.167 14.4867C10.2217 14.2065 10.5188 14 10.868 14H13.0493C16.4841 14 19.3991 11.9647 19.9315 9.2068C20.3094 7.2489 19.0963 5.4678 17.0216 4.58466Z" fill="#0070E0"/>
<path d="M3.61499 0C3.44592 4.27797e-06 3.2824 0.0490375 3.15389 0.138269C3.02538 0.227501 2.94032 0.35107 2.91402 0.48672L0.00710773 15.4587C-0.00589326 15.5255 -0.000900944 15.5938 0.0217346 15.659C0.0443701 15.7241 0.0841129 15.7844 0.138229 15.8359C0.192345 15.8873 0.25955 15.9286 0.33521 15.957C0.41087 15.9853 0.493187 16 0.576498 16H4.88742L5.95781 10.4867L7.12283 4.48671C7.14921 4.35112 7.23431 4.22763 7.36281 4.13846C7.49132 4.04929 7.65478 4.0003 7.8238 4.00031H14.0001C15.1234 4.00031 16.1485 4.21291 17.0215 4.58435C17.0809 2.07338 14.53 0 11.0223 0H3.61499Z" fill="#003087"/>
</g>
<defs>
<clipPath id="clip0_6024_3743">
<rect width="20" height="20" fill="white"/>
</clipPath>
</defs>
</svg>
