<svg width="20" height="20" viewBox="0 0 20 20" fill="none" xmlns="http://www.w3.org/2000/svg">
<g clip-path="url(#clip0_5001_10068)">
<path d="M13.3458 11.9817C13.3458 11.715 13.2333 11.5683 13.0592 11.4633C12.8842 11.3633 12.6725 11.3508 12.3842 11.3508H11.0983V13.7008H11.6608V12.845H12.2608C12.4608 12.845 12.5858 12.865 12.6592 12.9492C12.7592 13.0575 12.7458 13.2658 12.7458 13.4075V13.6992H13.2958V13.2367C13.2942 13.0283 13.2817 12.9233 13.2058 12.8067C13.1338 12.7177 13.0386 12.6503 12.9308 12.6117L12.9475 12.605C13.0696 12.5542 13.1733 12.4674 13.2447 12.3562C13.3162 12.245 13.352 12.1146 13.3475 11.9825L13.3458 11.9817ZM12.6208 12.3208L12.5975 12.3192C12.5225 12.3633 12.435 12.3675 12.3225 12.3675H11.6475V11.8425H12.3342C12.4342 11.8425 12.5342 11.8425 12.6092 11.8842C12.6484 11.9036 12.6812 11.934 12.7034 11.9718C12.7256 12.0095 12.7363 12.0529 12.7342 12.0967C12.7342 12.1967 12.6967 12.2758 12.6225 12.3217L12.6208 12.3208ZM16.9142 13.1975H15.8333V13.6975H16.92C17.4833 13.6975 17.795 13.4658 17.795 12.9608C17.795 12.7275 17.74 12.5875 17.6392 12.4758C17.5117 12.365 17.3125 12.315 17.0308 12.3033L16.7175 12.2908C16.6308 12.2908 16.5675 12.2908 16.505 12.2658C16.4677 12.2547 16.4351 12.2315 16.4124 12.1998C16.3898 12.1681 16.3784 12.1298 16.38 12.0908C16.38 12.0158 16.3942 11.9525 16.455 11.9158C16.5243 11.878 16.6029 11.8607 16.6817 11.8658H17.7067V11.3642H16.5817C15.995 11.3642 15.7833 11.7283 15.7833 12.0642C15.7833 12.8142 16.43 12.7767 16.9558 12.7892C17.0425 12.7892 17.1058 12.8017 17.1433 12.8392C17.1817 12.8642 17.2117 12.9275 17.2117 12.9892C17.2117 13.0533 17.1825 13.1142 17.145 13.1392C17.095 13.1833 17.02 13.1975 16.9142 13.1975ZM0 0V8.41333L0.675 6.85H2.13333L2.32083 7.23667V6.85H4.02333L4.39833 7.7L4.7625 6.85583H10.1808C10.4267 6.85583 10.6475 6.90333 10.8108 7.0525V6.86083H12.3V7.0525C12.5558 6.91083 12.8717 6.86083 13.2333 6.86083H15.405L15.605 7.24917V6.86083H17.2033L17.415 7.24833V6.86H18.9633V10.15H17.3917L17.0917 9.65V10.1375H15.1308L14.9175 9.6125H14.4317L14.2067 10.1242H13.1958C12.7958 10.1242 12.4958 10.0375 12.2958 9.92417V10.1242H9.8875V9.3875C9.8875 9.2875 9.8625 9.2875 9.8 9.275H9.7125V10.1383H5.05583V9.73833L4.88083 10.1383H3.90833L3.74 9.73833V10.1258H1.8625L1.64917 9.60583H1.16667L0.953333 10.1258H0V20H19.8217V14.0767C19.5967 14.1892 19.3108 14.2267 19.0108 14.2267H17.575V14.0142C17.4 14.1517 17.1 14.2267 16.8133 14.2267H12.2583V13.4767C12.2583 13.3767 12.2433 13.3767 12.1583 13.3767H12.0958V14.2283H10.5958V13.34C10.3475 13.4533 10.06 13.465 9.8225 13.4533H9.64417V14.2158H7.8275L7.3775 13.7017L6.9025 14.2017H3.95167V10.9267H6.96L7.39167 11.4283L7.85333 10.9283H9.86333C10.0967 10.9283 10.48 10.9533 10.6483 11.1158V10.9158H12.4625C12.6308 10.9158 12.9992 10.9533 13.215 11.1033V10.9033H15.9358V11.1033C16.0717 10.9667 16.3592 10.9033 16.605 10.9033H18.18V11.1033C18.3417 10.9783 18.5667 10.9033 18.88 10.9033H19.86V0H0ZM17.63 12.4625L17.6392 12.4758C17.6475 12.4842 17.6583 12.4842 17.665 12.4925L17.63 12.4625ZM19.8567 10.9017H19.9108V11.3642H19.8567V10.9017ZM19.8875 12.525V12.5208C19.8625 12.5 19.8492 12.4808 19.825 12.4625C19.7 12.335 19.5 12.2833 19.1883 12.275L18.8883 12.265C18.8125 12.2681 18.7366 12.2597 18.6633 12.24C18.626 12.2289 18.5934 12.2057 18.5708 12.174C18.5481 12.1423 18.5367 12.1039 18.5383 12.065C18.5383 11.9894 18.5633 11.9328 18.6133 11.895C18.6767 11.8575 18.7383 11.8533 18.8383 11.8533H19.8575V11.3633H18.7883C18.2133 11.3633 17.9883 11.7275 17.9883 12.0633C17.9883 12.8133 18.6383 12.7758 19.1633 12.7883C19.25 12.7883 19.3133 12.8008 19.35 12.8383C19.3883 12.8633 19.4133 12.9267 19.4133 12.9883C19.4133 13.0467 19.385 13.1033 19.3383 13.1383C19.3008 13.185 19.225 13.1967 19.1133 13.1967H18.04V13.7008H19.1125C19.4625 13.7008 19.7242 13.6025 19.8625 13.4008H19.8875C19.9625 13.2892 20 13.1508 20 12.965C20 12.765 19.9625 12.64 19.8875 12.5267V12.525ZM15.4975 11.84V11.3542H13.635V13.715H15.4975V13.2275H14.1892V12.7525H15.4667V12.2658H14.19V11.8408M11.2583 7.3225H11.8292V9.66667H11.2592L11.2583 7.3225ZM10.9383 7.9525L10.9325 7.9575C10.9325 7.69583 10.8242 7.54083 10.6492 7.4375C10.4683 7.33333 10.2575 7.325 9.97417 7.325H8.69167V9.675H9.25333V8.81333H9.85333C10.0533 8.81333 10.1783 8.83833 10.2592 8.91333C10.3608 9.02667 10.3483 9.22833 10.3483 9.37V9.665H10.9125V9.20417C10.9125 8.99583 10.8992 8.89167 10.8208 8.77417C10.7477 8.68577 10.653 8.61774 10.5458 8.57667C10.6892 8.51833 10.9392 8.32667 10.9392 7.95167L10.9383 7.9525ZM10.2258 8.2825H10.2133C10.1383 8.3275 10.0508 8.32917 9.93833 8.32917H9.25V7.81H9.9375C10.0375 7.81 10.1375 7.81333 10.2125 7.85167C10.2875 7.885 10.3375 7.95833 10.3375 8.06C10.3375 8.16167 10.2983 8.24333 10.2258 8.28167V8.2825ZM13.2667 7.81083H13.7933V7.31083H13.2567C12.87 7.31083 12.5867 7.39833 12.4067 7.58583C12.1683 7.83583 12.105 8.16083 12.105 8.51083C12.105 8.9375 12.2075 9.205 12.405 9.40583C12.5983 9.60417 12.9425 9.66417 13.2133 9.66417H13.8633L14.0758 9.14167H15.2342L15.4525 9.66417H16.5858V7.90583L17.6458 9.66417H18.4375L18.4392 9.66583V7.32167H17.8692V8.9575L16.8858 7.32417H16.0358V9.5L15.0917 7.28667H14.255L13.4692 9.13667H13.2192C13.0717 9.13667 12.9175 9.11167 12.8292 9.025C12.725 8.9 12.6742 8.725 12.6742 8.47333C12.6742 8.23583 12.7408 8.04833 12.8358 7.94833C12.9467 7.83583 13.0625 7.81083 13.2658 7.81083H13.2667ZM14.6567 7.72083L15.0433 8.6525V8.65417H14.2683L14.6567 7.72083ZM1.98333 9.14167L2.195 9.665H3.33333V7.8275L4.14333 9.665H4.63L5.44083 7.83L5.45333 9.665H6.02833V7.32333H5.09833L4.42583 8.91L3.69583 7.3225H2.78583V9.54167L1.8375 7.3225H1.00667L0.00833333 9.66417H0.608333L0.825 9.1425L1.98333 9.14167ZM1.41 7.72083L1.79333 8.6525L1.79083 8.65417H1.02833L1.40917 7.72083H1.41ZM9.88 11.35H8.095L7.38667 12.1192L6.69917 11.3508H4.455V13.7008H6.66667L7.37917 12.9242L8.06583 13.6992H9.15083V12.9158H9.84917C10.3492 12.9158 10.8242 12.7792 10.8242 12.1283L10.8192 12.1258C10.8192 11.4758 10.3208 11.3508 9.87917 11.3508L9.88 11.35ZM6.39167 13.2108L6.38 13.2092H5.01667V12.745H6.24167V12.2667H5.01667V11.8417H6.41667L7.0275 12.525L6.39083 13.2117L6.39167 13.2108ZM8.59333 13.4858L7.735 12.53L8.59333 11.6067V13.4842V13.4858ZM9.8875 12.4375H9.15V11.84H9.8875C10.0875 11.84 10.2375 11.9217 10.2375 12.1267C10.2375 12.3292 10.1125 12.4367 9.8875 12.4367V12.4375ZM8.30583 7.81083V7.3225H6.44167V9.66667H8.30583V9.18333H7V8.71333H8.2725V8.23333H7V7.81083" fill="#016FD0"/>
</g>
<defs>
<clipPath id="clip0_5001_10068">
<rect width="20" height="20" fill="white"/>
</clipPath>
</defs>
</svg>
